<svg version="1.1" id="Layer_1" xmlns="http://www.w3.org/2000/svg" xmlns:xlink="http://www.w3.org/1999/xlink" x="0px" y="0px"
	 width="100%" viewBox="0 0 500 250" enable-background="new 0 0 500 250" xml:space="preserve">
<path fill="#242323" opacity="1.000000" stroke="none" 
	d="
M333.000000,251.000000 
	C222.036835,251.000000 111.573662,251.000000 1.055246,251.000000 
	C1.055246,167.731308 1.055246,84.462563 1.055246,1.096910 
	C167.546463,1.096910 334.092987,1.096910 500.819763,1.096910 
	C500.819763,84.333015 500.819763,167.666473 500.819763,251.000000 
	C445.129303,251.000000 389.314667,251.000000 333.000000,251.000000 
M414.500000,217.953934 
	C438.251282,217.953934 462.002533,217.953934 485.605408,217.953934 
	C485.605408,152.833038 485.605408,88.453194 485.605408,24.146965 
	C329.102386,24.146965 173.009018,24.146965 16.661587,24.146965 
	C16.661587,88.790268 16.661587,153.178696 16.661587,218.095337 
	C52.882160,218.095337 88.779388,218.095337 125.128983,218.095337 
	C125.128983,222.203171 125.128983,225.797928 125.128983,229.470352 
	C209.297424,229.470352 293.006500,229.470352 377.161285,229.470352 
	C377.161285,225.515625 377.161285,221.919022 377.161285,217.953918 
	C389.569244,217.953918 401.534607,217.953918 414.500000,217.953934 
z"/>
<path fill="#F6A70F" opacity="1.000000" stroke="none" 
	d="
M414.000000,217.953918 
	C401.534607,217.953918 389.569244,217.953918 377.161285,217.953918 
	C377.161285,221.919022 377.161285,225.515625 377.161285,229.470352 
	C293.006500,229.470352 209.297424,229.470352 125.128983,229.470352 
	C125.128983,225.797928 125.128983,222.203171 125.128983,218.095337 
	C88.779388,218.095337 52.882160,218.095337 16.661587,218.095337 
	C16.661587,153.178696 16.661587,88.790268 16.661587,24.146965 
	C173.009018,24.146965 329.102386,24.146965 485.605408,24.146965 
	C485.605408,88.453194 485.605408,152.833038 485.605408,217.953934 
	C462.002533,217.953934 438.251282,217.953934 414.000000,217.953918 
M307.802246,211.228256 
	C306.209534,210.342422 304.616852,209.456604 302.609558,208.340210 
	C302.609558,212.932175 302.609558,216.271988 302.609558,219.915985 
	C303.923859,219.844498 305.159027,219.777313 306.407104,219.709427 
	C306.116364,217.766815 305.874390,216.150192 305.460663,213.385941 
	C308.142792,216.396805 309.933044,218.406525 312.599609,221.399933 
	C312.986603,216.317596 313.243805,212.939819 313.594391,208.335510 
	C311.898163,209.276611 310.604950,209.994125 308.779114,211.231125 
	C308.610809,211.413269 308.442535,211.595428 307.802246,211.228256 
M312.499969,197.789001 
	C333.908630,197.789001 355.317291,197.789001 377.115234,197.789001 
	C377.115234,203.319870 377.115234,208.097717 377.115234,212.997345 
	C412.186340,212.997345 446.857452,212.997345 481.570923,212.997345 
	C481.570923,151.166809 481.570923,89.776161 481.570923,28.330717 
	C327.878082,28.330717 174.508957,28.330717 21.066334,28.330717 
	C21.066334,90.049614 21.066334,151.452835 21.066334,213.134796 
	C55.747631,213.134796 90.126389,213.134796 125.066879,213.134796 
	C125.066879,207.943558 125.066879,203.034943 125.066879,197.788956 
	C187.585358,197.788956 249.542648,197.788956 312.499969,197.789001 
M273.087830,214.370239 
	C273.266876,214.186172 273.425354,213.969498 273.636536,213.836365 
	C273.707092,213.791870 273.987701,213.923340 274.044678,214.037857 
	C275.080170,216.119217 276.096161,218.210251 277.759888,221.617142 
	C279.437531,218.105759 280.442200,216.002869 281.971344,212.802261 
	C281.971344,215.923782 281.971344,217.826813 281.971344,219.746140 
	C283.347595,219.746140 284.433014,219.746140 285.358246,219.746140 
	C285.358246,216.161072 285.358246,212.839401 285.358246,209.428467 
	C279.202942,206.669907 280.142181,213.271103 277.824799,215.814529 
	C275.499969,213.059113 276.175568,206.860687 270.067871,209.426666 
	C270.067871,212.760818 270.067871,216.035492 270.067871,219.664368 
	C270.966034,219.664368 272.335724,219.664368 273.717896,219.664368 
	C273.467926,217.975159 273.253815,216.528076 273.087830,214.370239 
M259.066345,218.597519 
	C259.809937,216.792023 260.553528,214.986511 261.297119,213.181000 
	C261.510071,213.227448 261.722992,213.273895 261.935944,213.320343 
	C261.828003,215.368942 261.720062,217.417526 261.602966,219.639282 
	C262.806366,219.639282 263.985260,219.639282 264.902863,219.639282 
	C264.902863,215.916168 264.902863,212.570633 264.902863,209.320862 
	C258.381470,207.083740 259.873169,213.696915 257.446869,216.069870 
	C255.223038,213.188034 255.981140,206.724091 249.657318,209.466599 
	C249.657318,212.945755 249.657318,216.235657 249.657318,219.745209 
	C250.607437,219.745209 251.828995,219.745209 253.041504,219.745209 
	C253.041504,217.587784 253.041504,215.686279 253.041504,212.483154 
	C254.257401,215.291916 254.756943,217.077377 255.769608,218.496750 
	C256.220001,219.128067 257.704956,219.021271 259.066345,218.597519 
M196.913086,210.686371 
	C197.060425,213.600418 197.207748,216.514465 197.369827,219.720490 
	C198.309921,219.720490 199.525238,219.720490 200.723999,219.720490 
	C200.488815,217.651398 200.278305,215.799286 199.943726,212.855743 
	C202.492981,216.015289 204.222244,218.158554 205.951508,220.301819 
	C206.324783,220.119141 206.698044,219.936447 207.071320,219.753769 
	C207.337021,216.291489 207.602737,212.829208 207.948425,208.324921 
	C205.607391,209.257187 203.868561,209.949631 202.129745,210.642090 
	C202.188766,210.409683 202.247787,210.177292 202.306824,209.944901 
	C200.495773,209.944901 198.684738,209.944901 196.913086,210.686371 
M172.453827,210.681259 
	C170.947266,210.006927 169.440720,209.332611 167.755646,208.578384 
	C167.755646,212.948730 167.755646,216.165329 167.755646,219.678162 
	C168.974808,219.678162 170.339066,219.678162 171.610672,219.678162 
	C171.292679,217.626373 171.020538,215.870483 170.575119,212.996643 
	C173.218689,216.145554 174.999527,218.266830 176.780380,220.388107 
	C177.141693,220.094101 177.503021,219.800110 177.864334,219.506104 
	C178.112183,216.134552 178.360046,212.763000 178.622314,209.195267 
	C177.423218,209.195267 176.313934,209.195267 175.099869,209.195267 
	C175.317520,210.921341 175.513306,212.474014 175.870193,215.304230 
	C174.374557,213.286926 173.625397,212.276489 172.453827,210.681259 
M335.748169,209.385345 
	C333.756348,209.969635 331.764496,210.553940 329.772675,211.138245 
	C331.278107,213.259933 332.783569,215.381607 334.503540,217.805649 
	C332.887299,217.271103 331.216248,216.718430 329.545197,216.165771 
	C331.073486,219.671783 333.501587,221.431473 336.335541,218.905228 
	C337.351105,217.999954 336.737976,215.267639 336.941528,212.300095 
	C336.824066,211.859924 336.561890,210.877701 335.748169,209.385345 
M244.005066,218.594391 
	C244.410522,216.358871 245.697205,213.797150 245.018326,211.962997 
	C243.955826,209.092422 241.041718,208.074707 237.977051,209.519867 
	C234.944687,210.949799 233.824203,213.729782 235.150848,216.555344 
	C236.751114,219.963684 239.724030,221.203476 244.005066,218.594391 
M295.322418,219.995422 
	C298.060577,220.114044 300.179260,219.757431 298.190002,216.229553 
	C296.692871,216.786194 295.191986,217.344223 293.573944,217.945831 
	C293.847931,215.201782 294.038605,213.291946 294.254272,211.131912 
	C295.427338,211.322174 296.937408,211.567108 298.561188,211.830490 
	C297.830231,208.639603 296.742004,208.381500 290.440918,209.471497 
	C290.440918,212.853745 290.440918,216.174133 290.440918,219.809006 
	C291.533264,219.860016 292.989319,219.928024 295.322418,219.995422 
M192.615967,216.816086 
	C191.887329,214.525970 191.586136,211.927307 190.249695,210.075943 
	C189.581757,209.150635 186.575241,208.872147 185.428574,209.587250 
	C183.860352,210.565262 182.185684,212.759567 182.169037,214.448425 
	C182.152374,216.136658 183.934128,219.061447 185.263382,219.266479 
	C187.407562,219.597183 189.827240,218.141754 192.615967,216.816086 
M229.373672,209.930862 
	C228.110413,209.636002 226.287476,208.670944 225.688309,209.171310 
	C223.852051,210.704758 221.032227,213.047653 221.298904,214.616058 
	C221.643036,216.640121 224.368408,218.694122 226.545532,219.765778 
	C227.464584,220.218170 229.600861,218.197708 231.183868,217.301285 
	C228.453888,216.857941 226.497955,217.361191 224.707367,217.013351 
	C224.138153,216.902771 223.422653,214.332855 223.789825,213.224960 
	C224.833557,210.075668 227.261688,210.999710 229.494446,211.904724 
	C229.702637,211.309067 229.910812,210.713425 229.373672,209.930862 
M326.056366,210.137253 
	C323.927826,209.761780 321.805573,209.159683 319.668213,209.100098 
	C318.480804,209.066986 317.268127,209.938950 316.066833,210.402985 
	C317.222992,210.964279 318.379150,211.525574 319.985046,212.305206 
	C319.794952,214.377228 319.561951,216.916870 319.309021,219.673553 
	C320.584290,219.673553 321.957245,219.673553 322.874329,219.673553 
	C322.603760,216.773422 322.356812,214.126511 322.136871,211.769028 
	C323.835175,211.417282 324.940155,211.188431 326.056366,210.137253 
M142.992767,216.370453 
	C143.905334,213.707535 144.817886,211.044617 145.730453,208.381699 
	C145.190491,208.195343 144.650528,208.008972 144.110580,207.822617 
	C142.623062,211.718231 141.135559,215.613861 139.648041,219.509476 
	C140.068924,219.709930 140.489792,219.910385 140.910660,220.110840 
	C141.511246,219.085876 142.111847,218.060913 142.992767,216.370453 
M349.799561,213.204224 
	C352.374908,210.381485 352.374908,210.381485 349.013672,207.265427 
	C347.931396,208.138046 346.851349,209.008820 344.918762,210.566986 
	C346.694489,211.594437 347.985168,212.341248 349.799561,213.204224 
M153.806656,211.916885 
	C155.098938,212.517700 156.391220,213.118500 157.683502,213.719315 
	C158.095154,213.376282 158.506821,213.033264 158.918488,212.690231 
	C158.172913,210.774689 157.427353,208.859161 156.681793,206.943619 
	C156.138718,206.943100 155.595657,206.942566 155.052582,206.942032 
	C154.637726,208.422562 154.222870,209.903107 153.806656,211.916885 
z"/>
<path fill="#242423" opacity="1.000000" stroke="none" 
	d="
M311.999939,197.788971 
	C249.542648,197.788956 187.585358,197.788956 125.066879,197.788956 
	C125.066879,203.034943 125.066879,207.943558 125.066879,213.134796 
	C90.126389,213.134796 55.747631,213.134796 21.066334,213.134796 
	C21.066334,151.452835 21.066334,90.049614 21.066334,28.330717 
	C174.508957,28.330717 327.878082,28.330717 481.570923,28.330717 
	C481.570923,89.776161 481.570923,151.166809 481.570923,212.997345 
	C446.857452,212.997345 412.186340,212.997345 377.115234,212.997345 
	C377.115234,208.097717 377.115234,203.319870 377.115234,197.789001 
	C355.317291,197.789001 333.908630,197.789001 311.999939,197.788971 
M222.459274,144.483566 
	C222.461884,148.145355 222.215820,151.833694 222.602478,155.454483 
	C222.737122,156.715515 224.355331,158.725601 225.433273,158.819626 
	C229.840302,159.203995 234.300415,158.979950 239.346725,158.979950 
	C239.346725,147.998581 239.346725,137.633698 239.346725,127.012245 
	C244.607040,127.012245 249.252670,127.023598 253.898254,127.009972 
	C264.761597,126.978096 270.559753,121.334595 270.677307,110.455933 
	C270.783386,100.636879 270.786346,90.814827 270.678223,80.995827 
	C270.557159,70.002434 264.604065,64.190071 253.504562,64.108887 
	C245.016373,64.046806 236.519028,64.320091 228.042160,64.003937 
	C223.681915,63.841320 222.325882,65.135086 222.362488,69.588997 
	C222.564819,94.221062 222.459335,118.855652 222.459274,144.483566 
M299.835297,141.500427 
	C299.835297,136.746765 299.835297,131.993118 299.835297,127.008659 
	C305.147156,127.008659 309.794067,127.020401 314.440918,127.006294 
	C325.150360,126.973793 330.927429,121.494995 331.098694,110.857224 
	C331.259644,100.860123 331.240326,90.857025 331.107880,80.859123 
	C330.963715,69.978264 325.150055,64.227730 314.318359,64.119499 
	C305.652863,64.032906 296.978882,64.305389 288.322388,64.012558 
	C284.141785,63.871136 282.969025,65.209267 282.997467,69.362305 
	C283.174347,95.193588 283.086487,121.026695 283.086487,146.859192 
	C283.086456,159.885117 283.082458,159.815964 296.378876,159.041382 
	C298.947968,158.891724 299.945465,158.078659 299.867462,155.495895 
	C299.736694,151.166687 299.833984,146.830597 299.835297,141.500427 
M180.290405,130.500427 
	C180.290405,108.463242 180.290405,86.426056 180.290405,64.290459 
	C174.310959,64.290459 169.222351,64.290459 163.804703,64.290459 
	C163.804703,95.919342 163.804703,127.271141 163.804703,158.725372 
	C179.379745,158.725372 194.609024,158.725372 210.289764,158.725372 
	C210.289764,154.973633 210.057953,151.483688 210.351105,148.038406 
	C210.683594,144.130692 209.363815,142.784988 205.343292,142.926392 
	C197.083557,143.216843 188.806473,143.013641 180.290359,143.013641 
	C180.290359,138.804993 180.290359,135.152390 180.290405,130.500427 
M137.916550,138.499680 
	C137.916550,119.100082 137.916550,99.700493 137.916550,79.820251 
	C143.394638,79.820251 148.298553,79.820251 153.688492,79.820251 
	C153.688492,75.218658 153.933960,71.067886 153.521896,66.983452 
	C153.414215,65.915955 151.273315,64.241280 150.046249,64.223511 
	C136.404266,64.025986 122.757629,64.038567 109.114815,64.205063 
	C107.905708,64.219826 105.752754,65.635323 105.678368,66.535751 
	C105.317154,70.908264 105.515244,75.326981 105.515244,80.233902 
	C111.266396,80.233902 116.165161,80.233902 121.514168,80.233902 
	C121.514168,106.793182 121.514168,132.823471 121.514168,158.860504 
	C127.203613,158.860504 132.404099,158.860504 137.916550,158.860504 
	C137.916550,152.112198 137.916550,145.805740 137.916550,138.499680 
M361.139038,113.525589 
	C354.315643,131.417953 347.492249,149.310318 340.248596,168.304688 
	C344.904602,168.304688 348.204407,168.026840 351.437500,168.372589 
	C355.822327,168.841507 357.774048,167.092590 359.323456,162.946869 
	C370.842743,132.124603 382.665466,101.415817 394.356903,70.657684 
	C395.087891,68.734566 395.514740,66.695831 396.289764,63.989101 
	C392.031189,63.989101 388.549927,64.257965 385.129425,63.917114 
	C381.345367,63.540035 379.543823,64.971916 378.236542,68.523346 
	C372.783020,83.338943 367.034332,98.045876 361.139038,113.525589 
M79.465317,103.877129 
	C82.610626,102.369431 85.750114,100.849426 88.902435,99.356506 
	C96.166397,95.916382 96.168930,95.921722 94.698616,87.014496 
	C93.610451,87.499741 92.581459,87.912804 91.592628,88.406364 
	C75.251480,96.562599 58.932121,104.762810 42.558758,112.853767 
	C40.298355,113.970757 38.987411,115.034943 38.933872,117.949570 
	C38.874016,121.208359 40.954388,121.749763 43.030441,122.661316 
	C59.296856,129.803528 75.566383,136.938660 91.846596,144.049347 
	C92.819618,144.474335 93.892632,144.670456 94.997017,144.996033 
	C95.732658,136.087234 95.735855,136.079636 88.377388,132.983124 
	C76.229973,127.871376 64.077957,122.770569 51.048946,117.295837 
	C60.825165,112.655327 69.791435,108.399277 79.465317,103.877129 
M419.669830,92.827866 
	C415.713776,90.845253 411.757721,88.862640 407.617218,86.787590 
	C406.531555,95.971420 406.529816,95.975021 413.664856,99.401184 
	C415.610443,100.335426 417.574493,101.231255 419.522186,102.161148 
	C429.980927,107.154472 440.437225,112.153000 451.484253,117.431587 
	C438.388916,122.866119 425.994843,128.005920 413.603882,133.153259 
	C406.146240,136.251251 405.990234,136.577301 407.910858,145.078232 
	C409.002167,144.674393 410.084076,144.335999 411.115692,143.883011 
	C427.370941,136.745270 443.648346,129.656158 459.824280,122.342735 
	C461.390869,121.634453 462.824707,119.697495 463.430267,118.011299 
	C464.415466,115.268158 462.351532,114.031654 460.049469,112.900070 
	C446.782654,106.378738 433.583282,99.720085 419.669830,92.827866 
z"/>
<path fill="#49442E" opacity="1.000000" stroke="none" 
	d="
M273.063751,214.725616 
	C273.253815,216.528076 273.467926,217.975159 273.717896,219.664368 
	C272.335724,219.664368 270.966034,219.664368 270.067871,219.664368 
	C270.067871,216.035492 270.067871,212.760818 270.067871,209.426666 
	C276.175568,206.860687 275.499969,213.059113 277.824799,215.814529 
	C280.142181,213.271103 279.202942,206.669907 285.358246,209.428467 
	C285.358246,212.839401 285.358246,216.161072 285.358246,219.746140 
	C284.433014,219.746140 283.347595,219.746140 281.971344,219.746140 
	C281.971344,217.826813 281.971344,215.923782 281.971344,212.802261 
	C280.442200,216.002869 279.437531,218.105759 277.759888,221.617142 
	C276.096161,218.210251 275.080170,216.119217 274.044678,214.037857 
	C273.987701,213.923340 273.707092,213.791870 273.636536,213.836365 
	C273.425354,213.969498 273.266876,214.186172 273.063751,214.725616 
z"/>
<path fill="#4B4031" opacity="1.000000" stroke="none" 
	d="
M258.893311,218.923523 
	C257.704956,219.021271 256.220001,219.128067 255.769608,218.496750 
	C254.756943,217.077377 254.257401,215.291916 253.041504,212.483154 
	C253.041504,215.686279 253.041504,217.587784 253.041504,219.745209 
	C251.828995,219.745209 250.607437,219.745209 249.657318,219.745209 
	C249.657318,216.235657 249.657318,212.945755 249.657318,209.466599 
	C255.981140,206.724091 255.223038,213.188034 257.446869,216.069870 
	C259.873169,213.696915 258.381470,207.083740 264.902863,209.320862 
	C264.902863,212.570633 264.902863,215.916168 264.902863,219.639282 
	C263.985260,219.639282 262.806366,219.639282 261.602966,219.639282 
	C261.720062,217.417526 261.828003,215.368942 261.935944,213.320343 
	C261.722992,213.273895 261.510071,213.227448 261.297119,213.181000 
	C260.553528,214.986511 259.809937,216.792023 258.893311,218.923523 
z"/>
<path fill="#4A4230" opacity="1.000000" stroke="none" 
	d="
M309.311707,210.711639 
	C310.604950,209.994125 311.898163,209.276611 313.594391,208.335510 
	C313.243805,212.939819 312.986603,216.317596 312.599609,221.399933 
	C309.933044,218.406525 308.142792,216.396805 305.460663,213.385941 
	C305.874390,216.150192 306.116364,217.766815 306.407104,219.709427 
	C305.159027,219.777313 303.923859,219.844498 302.609558,219.915985 
	C302.609558,216.271988 302.609558,212.932175 302.609558,208.340210 
	C304.616852,209.456604 306.209534,210.342422 308.141327,211.797882 
	C308.866333,212.824783 309.252228,213.282059 309.638123,213.739334 
	C309.883636,213.615219 310.129120,213.491119 310.374634,213.367020 
	C310.020325,212.481888 309.666016,211.596756 309.311707,210.711639 
z"/>
<path fill="#433D32" opacity="1.000000" stroke="none" 
	d="
M196.893387,210.315643 
	C198.684738,209.944901 200.495773,209.944901 202.306824,209.944901 
	C202.247787,210.177292 202.188766,210.409683 202.129745,210.642090 
	C203.868561,209.949631 205.607391,209.257187 207.948425,208.324921 
	C207.602737,212.829208 207.337021,216.291489 207.071320,219.753769 
	C206.698044,219.936447 206.324783,220.119141 205.951508,220.301819 
	C204.222244,218.158554 202.492981,216.015289 199.943726,212.855743 
	C200.278305,215.799286 200.488815,217.651398 200.723999,219.720490 
	C199.525238,219.720490 198.309921,219.720490 197.369827,219.720490 
	C197.207748,216.514465 197.060425,213.600418 196.893387,210.315643 
z"/>
<path fill="#483F2F" opacity="1.000000" stroke="none" 
	d="
M172.665039,210.973663 
	C173.625397,212.276489 174.374557,213.286926 175.870193,215.304230 
	C175.513306,212.474014 175.317520,210.921341 175.099869,209.195267 
	C176.313934,209.195267 177.423218,209.195267 178.622314,209.195267 
	C178.360046,212.763000 178.112183,216.134552 177.864334,219.506104 
	C177.503021,219.800110 177.141693,220.094101 176.780380,220.388107 
	C174.999527,218.266830 173.218689,216.145554 170.575119,212.996643 
	C171.020538,215.870483 171.292679,217.626373 171.610672,219.678162 
	C170.339066,219.678162 168.974808,219.678162 167.755646,219.678162 
	C167.755646,216.165329 167.755646,212.948730 167.755646,208.578384 
	C169.440720,209.332611 170.947266,210.006927 172.665039,210.973663 
z"/>
<path fill="#414030" opacity="1.000000" stroke="none" 
	d="
M336.023956,209.640411 
	C336.561890,210.877701 336.824066,211.859924 336.941528,212.300095 
	C336.737976,215.267639 337.351105,217.999954 336.335541,218.905228 
	C333.501587,221.431473 331.073486,219.671783 329.545197,216.165771 
	C331.216248,216.718430 332.887299,217.271103 334.503540,217.805649 
	C332.783569,215.381607 331.278107,213.259933 329.772675,211.138245 
	C331.764496,210.553940 333.756348,209.969635 336.023956,209.640411 
z"/>
<path fill="#47442E" opacity="1.000000" stroke="none" 
	d="
M243.688599,218.824310 
	C239.724030,221.203476 236.751114,219.963684 235.150848,216.555344 
	C233.824203,213.729782 234.944687,210.949799 237.977051,209.519867 
	C241.041718,208.074707 243.955826,209.092422 245.018326,211.962997 
	C245.697205,213.797150 244.410522,216.358871 243.688599,218.824310 
M239.090652,211.330002 
	C236.693436,213.266418 236.308441,215.516541 238.907349,217.315796 
	C239.631699,217.817276 242.334167,217.008362 242.723129,216.157700 
	C243.894455,213.595993 243.318237,211.342972 239.090652,211.330002 
z"/>
<path fill="#3A3C32" opacity="1.000000" stroke="none" 
	d="
M294.883881,219.995728 
	C292.989319,219.928024 291.533264,219.860016 290.440918,219.809006 
	C290.440918,216.174133 290.440918,212.853745 290.440918,209.471497 
	C296.742004,208.381500 297.830231,208.639603 298.561188,211.830490 
	C296.937408,211.567108 295.427338,211.322174 294.254272,211.131912 
	C294.038605,213.291946 293.847931,215.201782 293.573944,217.945831 
	C295.191986,217.344223 296.692871,216.786194 298.190002,216.229553 
	C300.179260,219.757431 298.060577,220.114044 294.883881,219.995728 
z"/>
<path fill="#3E3E30" opacity="1.000000" stroke="none" 
	d="
M192.373260,217.128433 
	C189.827240,218.141754 187.407562,219.597183 185.263382,219.266479 
	C183.934128,219.061447 182.152374,216.136658 182.169037,214.448425 
	C182.185684,212.759567 183.860352,210.565262 185.428574,209.587250 
	C186.575241,208.872147 189.581757,209.150635 190.249695,210.075943 
	C191.586136,211.927307 191.887329,214.525970 192.373260,217.128433 
M188.238785,211.084824 
	C186.929871,212.248230 185.360962,213.248108 184.465622,214.671646 
	C184.185883,215.116379 185.514938,217.217529 186.492462,217.615875 
	C187.361588,217.970062 189.740768,217.058990 189.759109,216.633392 
	C189.833908,214.897522 189.258316,213.133621 188.238785,211.084824 
z"/>
<path fill="#3C3D31" opacity="1.000000" stroke="none" 
	d="
M229.746338,210.024323 
	C229.910812,210.713425 229.702637,211.309067 229.494446,211.904724 
	C227.261688,210.999710 224.833557,210.075668 223.789825,213.224960 
	C223.422653,214.332855 224.138153,216.902771 224.707367,217.013351 
	C226.497955,217.361191 228.453888,216.857941 231.183868,217.301285 
	C229.600861,218.197708 227.464584,220.218170 226.545532,219.765778 
	C224.368408,218.694122 221.643036,216.640121 221.298904,214.616058 
	C221.032227,213.047653 223.852051,210.704758 225.688309,209.171310 
	C226.287476,208.670944 228.110413,209.636002 229.746338,210.024323 
z"/>
<path fill="#383932" opacity="1.000000" stroke="none" 
	d="
M326.050720,210.548416 
	C324.940155,211.188431 323.835175,211.417282 322.136871,211.769028 
	C322.356812,214.126511 322.603760,216.773422 322.874329,219.673553 
	C321.957245,219.673553 320.584290,219.673553 319.309021,219.673553 
	C319.561951,216.916870 319.794952,214.377228 319.985046,212.305206 
	C318.379150,211.525574 317.222992,210.964279 316.066833,210.402985 
	C317.268127,209.938950 318.480804,209.066986 319.668213,209.100098 
	C321.805573,209.159683 323.927826,209.761780 326.050720,210.548416 
z"/>
<path fill="#574F29" opacity="1.000000" stroke="none" 
	d="
M142.852600,216.703201 
	C142.111847,218.060913 141.511246,219.085876 140.910660,220.110840 
	C140.489792,219.910385 140.068924,219.709930 139.648041,219.509476 
	C141.135559,215.613861 142.623062,211.718231 144.110580,207.822617 
	C144.650528,208.008972 145.190491,208.195343 145.730453,208.381699 
	C144.817886,211.044617 143.905334,213.707535 142.852600,216.703201 
z"/>
<path fill="#4E452E" opacity="1.000000" stroke="none" 
	d="
M349.537720,213.146149 
	C347.985168,212.341248 346.694489,211.594437 344.918762,210.566986 
	C346.851349,209.008820 347.931396,208.138046 349.013672,207.265427 
	C352.374908,210.381485 352.374908,210.381485 349.537720,213.146149 
z"/>
<path fill="#4E452E" opacity="1.000000" stroke="none" 
	d="
M153.807343,211.650269 
	C154.222870,209.903107 154.637726,208.422562 155.052582,206.942032 
	C155.595657,206.942566 156.138718,206.943100 156.681793,206.943619 
	C157.427353,208.859161 158.172913,210.774689 158.918488,212.690231 
	C158.506821,213.033264 158.095154,213.376282 157.683502,213.719315 
	C156.391220,213.118500 155.098938,212.517700 153.807343,211.650269 
z"/>
<path fill="#E8E8E8" opacity="1.000000" stroke="none" 
	d="
M222.459290,143.986481 
	C222.459335,118.855652 222.564819,94.221062 222.362488,69.588997 
	C222.325882,65.135086 223.681915,63.841320 228.042160,64.003937 
	C236.519028,64.320091 245.016373,64.046806 253.504562,64.108887 
	C264.604065,64.190071 270.557159,70.002434 270.678223,80.995827 
	C270.786346,90.814827 270.783386,100.636879 270.677307,110.455933 
	C270.559753,121.334595 264.761597,126.978096 253.898254,127.009972 
	C249.252670,127.023598 244.607040,127.012245 239.346725,127.012245 
	C239.346725,137.633698 239.346725,147.998581 239.346725,158.979950 
	C234.300415,158.979950 229.840302,159.203995 225.433273,158.819626 
	C224.355331,158.725601 222.737122,156.715515 222.602478,155.454483 
	C222.215820,151.833694 222.461884,148.145355 222.459290,143.986481 
M248.072830,80.001122 
	C245.294968,80.001122 242.517105,80.001122 239.501007,80.001122 
	C239.501007,90.515472 239.501007,100.560036 239.501007,111.118828 
	C242.339386,111.118828 244.962082,110.969841 247.561600,111.152023 
	C252.010315,111.463814 254.000534,109.555405 253.916046,105.082985 
	C253.796875,98.775146 253.807327,92.462128 253.912903,86.153847 
	C253.972244,82.608139 252.697495,80.394783 248.072830,80.001122 
z"/>
<path fill="#EAEAEA" opacity="1.000000" stroke="none" 
	d="
M299.835266,141.998917 
	C299.833984,146.830597 299.736694,151.166687 299.867462,155.495895 
	C299.945465,158.078659 298.947968,158.891724 296.378876,159.041382 
	C283.082458,159.815964 283.086456,159.885117 283.086487,146.859192 
	C283.086487,121.026695 283.174347,95.193588 282.997467,69.362305 
	C282.969025,65.209267 284.141785,63.871136 288.322388,64.012558 
	C296.978882,64.305389 305.652863,64.032906 314.318359,64.119499 
	C325.150055,64.227730 330.963715,69.978264 331.107880,80.859123 
	C331.240326,90.857025 331.259644,100.860123 331.098694,110.857224 
	C330.927429,121.494995 325.150360,126.973793 314.440918,127.006294 
	C309.794067,127.020401 305.147156,127.008659 299.835297,127.008659 
	C299.835297,131.993118 299.835297,136.746765 299.835266,141.998917 
M308.066528,80.013229 
	C305.458588,80.013229 302.850616,80.013229 300.206238,80.013229 
	C300.206238,90.626816 300.206238,100.782188 300.206238,111.094589 
	C303.220886,111.094589 305.873657,110.968201 308.509949,111.123077 
	C312.882904,111.379982 314.411346,109.211426 314.332520,105.107948 
	C314.211395,98.805756 314.177673,92.496361 314.343201,86.196228 
	C314.445496,82.303192 312.888428,80.239510 308.066528,80.013229 
z"/>
<path fill="#E9E9E9" opacity="1.000000" stroke="none" 
	d="
M180.290375,131.000107 
	C180.290359,135.152390 180.290359,138.804993 180.290359,143.013641 
	C188.806473,143.013641 197.083557,143.216843 205.343292,142.926392 
	C209.363815,142.784988 210.683594,144.130692 210.351105,148.038406 
	C210.057953,151.483688 210.289764,154.973633 210.289764,158.725372 
	C194.609024,158.725372 179.379745,158.725372 163.804703,158.725372 
	C163.804703,127.271141 163.804703,95.919342 163.804703,64.290459 
	C169.222351,64.290459 174.310959,64.290459 180.290405,64.290459 
	C180.290405,86.426056 180.290405,108.463242 180.290375,131.000107 
z"/>
<path fill="#E9E9E9" opacity="1.000000" stroke="none" 
	d="
M137.916550,138.999481 
	C137.916550,145.805740 137.916550,152.112198 137.916550,158.860504 
	C132.404099,158.860504 127.203613,158.860504 121.514168,158.860504 
	C121.514168,132.823471 121.514168,106.793182 121.514168,80.233902 
	C116.165161,80.233902 111.266396,80.233902 105.515244,80.233902 
	C105.515244,75.326981 105.317154,70.908264 105.678368,66.535751 
	C105.752754,65.635323 107.905708,64.219826 109.114815,64.205063 
	C122.757629,64.038567 136.404266,64.025986 150.046249,64.223511 
	C151.273315,64.241280 153.414215,65.915955 153.521896,66.983452 
	C153.933960,71.067886 153.688492,75.218658 153.688492,79.820251 
	C148.298553,79.820251 143.394638,79.820251 137.916550,79.820251 
	C137.916550,99.700493 137.916550,119.100082 137.916550,138.999481 
z"/>
<path fill="#E9E9E9" opacity="1.000000" stroke="none" 
	d="
M361.266418,113.159119 
	C367.034332,98.045876 372.783020,83.338943 378.236542,68.523346 
	C379.543823,64.971916 381.345367,63.540035 385.129425,63.917114 
	C388.549927,64.257965 392.031189,63.989101 396.289764,63.989101 
	C395.514740,66.695831 395.087891,68.734566 394.356903,70.657684 
	C382.665466,101.415817 370.842743,132.124603 359.323456,162.946869 
	C357.774048,167.092590 355.822327,168.841507 351.437500,168.372589 
	C348.204407,168.026840 344.904602,168.304688 340.248596,168.304688 
	C347.492249,149.310318 354.315643,131.417953 361.266418,113.159119 
z"/>
<path fill="#E6E6E6" opacity="1.000000" stroke="none" 
	d="
M79.111511,104.010178 
	C69.791435,108.399277 60.825165,112.655327 51.048946,117.295837 
	C64.077957,122.770569 76.229973,127.871376 88.377388,132.983124 
	C95.735855,136.079636 95.732658,136.087234 94.997017,144.996033 
	C93.892632,144.670456 92.819618,144.474335 91.846596,144.049347 
	C75.566383,136.938660 59.296856,129.803528 43.030441,122.661316 
	C40.954388,121.749763 38.874016,121.208359 38.933872,117.949570 
	C38.987411,115.034943 40.298355,113.970757 42.558758,112.853767 
	C58.932121,104.762810 75.251480,96.562599 91.592628,88.406364 
	C92.581459,87.912804 93.610451,87.499741 94.698616,87.014496 
	C96.168930,95.921722 96.166397,95.916382 88.902435,99.356506 
	C85.750114,100.849426 82.610626,102.369431 79.111511,104.010178 
z"/>
<path fill="#E7E7E7" opacity="1.000000" stroke="none" 
	d="
M420.015442,92.967911 
	C433.583282,99.720085 446.782654,106.378738 460.049469,112.900070 
	C462.351532,114.031654 464.415466,115.268158 463.430267,118.011299 
	C462.824707,119.697495 461.390869,121.634453 459.824280,122.342735 
	C443.648346,129.656158 427.370941,136.745270 411.115692,143.883011 
	C410.084076,144.335999 409.002167,144.674393 407.910858,145.078232 
	C405.990234,136.577301 406.146240,136.251251 413.603882,133.153259 
	C425.994843,128.005920 438.388916,122.866119 451.484253,117.431587 
	C440.437225,112.153000 429.980927,107.154472 419.522186,102.161148 
	C417.574493,101.231255 415.610443,100.335426 413.664856,99.401184 
	C406.529816,95.975021 406.531555,95.971420 407.617218,86.787590 
	C411.757721,88.862640 415.713776,90.845253 420.015442,92.967911 
z"/>
<path fill="#F6A70F" opacity="1.000000" stroke="none" 
	d="
M309.045410,210.971375 
	C309.666016,211.596756 310.020325,212.481888 310.374634,213.367020 
	C310.129120,213.491119 309.883636,213.615219 309.638123,213.739334 
	C309.252228,213.282059 308.866333,212.824783 308.377319,212.072540 
	C308.442535,211.595428 308.610809,211.413269 309.045410,210.971375 
z"/>
<path fill="#F6A612" opacity="1.000000" stroke="none" 
	d="
M239.462494,211.213638 
	C243.318237,211.342972 243.894455,213.595993 242.723129,216.157700 
	C242.334167,217.008362 239.631699,217.817276 238.907349,217.315796 
	C236.308441,215.516541 236.693436,213.266418 239.462494,211.213638 
z"/>
<path fill="#F1A213" opacity="1.000000" stroke="none" 
	d="
M188.580566,211.232437 
	C189.258316,213.133621 189.833908,214.897522 189.759109,216.633392 
	C189.740768,217.058990 187.361588,217.970062 186.492462,217.615875 
	C185.514938,217.217529 184.185883,215.116379 184.465622,214.671646 
	C185.360962,213.248108 186.929871,212.248230 188.580566,211.232437 
z"/>
<path fill="#2C2C2C" opacity="1.000000" stroke="none" 
	d="
M248.512360,80.036560 
	C252.697495,80.394783 253.972244,82.608139 253.912903,86.153847 
	C253.807327,92.462128 253.796875,98.775146 253.916046,105.082985 
	C254.000534,109.555405 252.010315,111.463814 247.561600,111.152023 
	C244.962082,110.969841 242.339386,111.118828 239.501007,111.118828 
	C239.501007,100.560036 239.501007,90.515472 239.501007,80.001122 
	C242.517105,80.001122 245.294968,80.001122 248.512360,80.036560 
z"/>
<path fill="#232323" opacity="1.000000" stroke="none" 
	d="
M308.518250,80.029892 
	C312.888428,80.239510 314.445496,82.303192 314.343201,86.196228 
	C314.177673,92.496361 314.211395,98.805756 314.332520,105.107948 
	C314.411346,109.211426 312.882904,111.379982 308.509949,111.123077 
	C305.873657,110.968201 303.220886,111.094589 300.206238,111.094589 
	C300.206238,100.782188 300.206238,90.626816 300.206238,80.013229 
	C302.850616,80.013229 305.458588,80.013229 308.518250,80.029892 
z"/>
</svg>